<?xml version="1.0" encoding="UTF-8" standalone="no"?>
<!-- Generator: Adobe Illustrator 21.1.0, SVG Export Plug-In . SVG Version: 6.00 Build 0)  -->

<svg
   xmlns:dc="http://purl.org/dc/elements/1.1/"
   xmlns:cc="http://creativecommons.org/ns#"
   xmlns:rdf="http://www.w3.org/1999/02/22-rdf-syntax-ns#"
   xmlns:svg="http://www.w3.org/2000/svg"
   xmlns="http://www.w3.org/2000/svg"
   xmlns:sodipodi="http://sodipodi.sourceforge.net/DTD/sodipodi-0.dtd"
   xmlns:inkscape="http://www.inkscape.org/namespaces/inkscape"
   version="1.1"
   id="Layer_1"
   x="0px"
   y="0px"
   viewBox="0 0 128.3 24.3"
   style="enable-background:new 0 0 128.3 24.3;"
   xml:space="preserve"
   sodipodi:docname="dstv.svg"
   inkscape:version="0.92.4 (5da689c313, 2019-01-14)"><metadata
   id="metadata4574"><rdf:RDF><cc:Work
       rdf:about=""><dc:format>image/svg+xml</dc:format><dc:type
         rdf:resource="http://purl.org/dc/dcmitype/StillImage" /></cc:Work></rdf:RDF></metadata><defs
   id="defs4572" /><sodipodi:namedview
   pagecolor="#ffffff"
   bordercolor="#666666"
   borderopacity="1"
   objecttolerance="10"
   gridtolerance="10"
   guidetolerance="10"
   inkscape:pageopacity="0"
   inkscape:pageshadow="2"
   inkscape:window-width="1600"
   inkscape:window-height="877"
   id="namedview4570"
   showgrid="false"
   inkscape:zoom="2.2135619"
   inkscape:cx="64.150002"
   inkscape:cy="12.15"
   inkscape:window-x="-8"
   inkscape:window-y="-8"
   inkscape:window-maximized="1"
   inkscape:current-layer="Layer_1" />
<style
   type="text/css"
   id="style4563">
	.st0{fill:#FFFFFF;}
</style>
<g
   id="g4567">
	<path
   class="st0"
   d="M127.9,6.5h-2.8c-0.5,0-1,0.5-1,0.5l-10.6,13.9c-0.2,0.3-0.5,0.3-0.7,0L102.9,7c0,0-0.4-0.5-1.1-0.5H83   c-0.3,0-0.6-0.3-0.6-0.6V1.3c0-0.7-0.5-1.2-1.2-1.2H52.3c-4.5,0.2-6.4,0.6-8.4,1.8C42,3,41,4.4,41,6.1c0,1.8,1.5,3.6,4.4,5.3   c0.8,0.5,3.5,1.8,8.1,3.9c2.9,1.4,4.5,2.5,4.4,3.6c-0.2,1.8-1.8,2.4-5.6,2.4H34.8c-0.4,0-0.8-0.1-0.8-0.4c0-0.2,0.1-0.3,0.3-0.4   l0,0c3.9-2.4,5.2-5.5,5.2-8.4c0-5.5-4.5-12-22.5-12H1.3c-0.7,0-1.2,0.5-1.2,1.2v21.4c0,0.7,0.5,1.2,1.2,1.2H17c0.6,0,1.2,0,1.7,0   H58c3.6,0,6.4-0.6,8.4-1.8c1.9-1.1,2.8-2.5,2.8-4.2c0-1.8-1.5-3.5-4.4-5.3c-0.7-0.5-3.5-1.8-8.1-3.9c-2.9-1.3-4.4-2.4-4.4-3.3   c0-1.8,1.9-2.7,5.7-2.7h13.3c0.3,0,0.6,0.3,0.6,0.6v15.5c0,2.3,1.5,5,6.1,5h36.5c0.9,0,1.3-0.6,1.3-0.6l12.5-16.4   C128.2,6.9,128.4,6.5,127.9,6.5 M14.6,21.3h-3.9c-0.3,0-0.6-0.3-0.6-0.6V3.2c0-0.3,0.3-0.6,0.6-0.6h3.9c9.6,0,14.6,3.9,14.6,9.3   C29.2,17.4,24.1,21.3,14.6,21.3 M102.2,21.4H85.3c-2.3,0-2.9-0.7-2.9-2.5V9.5C82.4,9.2,82.7,9,83,9h9.8c0.3,0,0.7,0.2,0.9,0.4   l8.8,11.5C102.6,21.2,102.5,21.4,102.2,21.4"
   id="path4565"
   style="fill:#a8a8a8;fill-opacity:1" />
</g>
</svg>