<?xml version="1.0" encoding="utf-8"?>
<!-- Generator: Adobe Illustrator 16.0.0, SVG Export Plug-In . SVG Version: 6.00 Build 0)  -->
<!DOCTYPE svg PUBLIC "-//W3C//DTD SVG 1.1//EN" "http://www.w3.org/Graphics/SVG/1.1/DTD/svg11.dtd">
<svg version="1.1" id="Layer_1" xmlns="http://www.w3.org/2000/svg" xmlns:xlink="http://www.w3.org/1999/xlink" x="0px" y="0px"
	 width="1000px" height="377.225px" viewBox="-194 207.387 1000 377.225" enable-background="new -194 207.387 1000 377.225"
	 xml:space="preserve">
<g>
	<path fill="#EC583C" d="M-71.596,306.423h-67.507v26.706h53.783v53.042l-52.67-0.742v66.023H-194V253.381h117.953 M150.213,253.381
		l23.739,41.543l23.368-41.543h60.46l-53.784,94.956l58.605,103.115h-62.314l-27.448-49.703l-27.448,49.703H84.19l59.718-103.115
		l-56.009-94.956 M20.762,256.349c-53.042,0-96.067,43.027-96.067,96.068c0,53.042,43.026,95.697,95.697,95.697
		c52.67,0,95.697-43.026,95.697-95.697C116.46,299.375,73.433,256.349,20.762,256.349z M36.341,395.073
		c0,6.676-6.306,12.24-14.095,12.24h-2.967c-7.79,0-14.096-5.564-14.096-12.24v-85.312c0-6.676,6.306-12.611,14.096-12.611h2.967
		c7.789,0,14.095,5.563,14.095,12.611V395.073z"/>
	<polygon fill="#512060" points="287.454,207.387 287.454,451.082 362.009,584.612 362.009,496.334 806,496.334 806,207.387 	"/>
	<path fill="#F5F5F5" d="M487.751,263.026c11.868,0,21.143,9.644,21.143,21.142c0,11.869-9.645,21.142-21.143,21.142
		c-11.869,0-21.144-9.273-21.144-21.142C466.607,272.669,475.882,263.026,487.751,263.026z"/>
	<path fill="#F5F5F5" d="M443.24,436.615h-80.859v-20.771h7.046c10.387,0,11.871-2.226,11.871-12.24V300.488
		c0-12.982-1.114-15.208-11.499-15.208h-7.42v-20.772h62.314v139.095c0,9.645,1.114,12.24,11.499,12.24h7.048V436.615
		L443.24,436.615z"/>
	<path fill="#F5F5F5" d="M529.665,436.245h-80.86v-20.771h7.789c10.386,0,12.24-2.226,12.24-12.24v-52.67
		c0-10.757-0.37-13.725-11.499-13.725h-8.16v-21.142h63.057v88.279c0,10.015,1.854,12.24,11.499,12.24h6.305v20.029H529.665z"/>
	<path fill="#F5F5F5" d="M619.799,336.838h-21.885v59.718c0,14.837,0.37,18.176,12.982,18.176h8.902v21.883h-83.828v-21.883h6.305
		c12.612,0,12.612-4.452,12.612-18.176v-59.718h-18.917v-21.142h18.917v-7.047c0-13.725,0.742-24.11,7.419-32.271
		c7.788-9.644,22.997-16.321,41.542-16.321c26.335,0,41.914,12.241,41.914,28.562c0,11.499-7.789,19.288-18.546,19.288
		c-10.016,0-17.434-7.047-17.434-16.321c0-5.563,3.338-9.644,9.644-12.982c-2.966-0.37-5.934-0.741-8.16-0.741
		c-11.127,0-13.725,6.306-13.725,21.513v16.321h21.885v21.142H619.799z"/>
	<path fill="#F5F5F5" d="M752.217,381.349h-83.086v2.226c0,22.255,8.531,33.383,24.852,33.383c15.207,0,24.481-7.79,25.964-21.143
		h30.415c-7.788,30.043-28.56,45.252-61.201,45.252c-39.317,0-64.911-25.594-64.911-63.428c0-40.43,24.481-65.652,63.799-65.652
		c40.431,0,64.169,24.109,64.169,64.911V381.349z M688.789,333.871c-11.869,0-19.287,9.272-19.287,26.707h39.317v-1.113
		C708.819,342.773,702.143,333.871,688.789,333.871L688.789,333.871z"/>
</g>
</svg>
