<?xml version="1.0" encoding="UTF-8" standalone="no"?>
<svg
   xmlns:dc="http://purl.org/dc/elements/1.1/"
   xmlns:cc="http://creativecommons.org/ns#"
   xmlns:rdf="http://www.w3.org/1999/02/22-rdf-syntax-ns#"
   xmlns:svg="http://www.w3.org/2000/svg"
   xmlns="http://www.w3.org/2000/svg"
   xmlns:sodipodi="http://sodipodi.sourceforge.net/DTD/sodipodi-0.dtd"
   xmlns:inkscape="http://www.inkscape.org/namespaces/inkscape"
   width="2045.999"
   height="386.6922"
   viewBox="0 0 157.75144 29.814897"
   version="1.1"
   id="svg839"
   sodipodi:docname="nedbank.svg"
   inkscape:version="0.92.4 (5da689c313, 2019-01-14)">
  <metadata
     id="metadata845">
    <rdf:RDF>
      <cc:Work
         rdf:about="">
        <dc:format>image/svg+xml</dc:format>
        <dc:type
           rdf:resource="http://purl.org/dc/dcmitype/StillImage" />
        <dc:title></dc:title>
      </cc:Work>
    </rdf:RDF>
  </metadata>
  <defs
     id="defs843" />
  <sodipodi:namedview
     pagecolor="#ffffff"
     bordercolor="#666666"
     borderopacity="1"
     objecttolerance="10"
     gridtolerance="10"
     guidetolerance="10"
     inkscape:pageopacity="0"
     inkscape:pageshadow="2"
     inkscape:window-width="1600"
     inkscape:window-height="877"
     id="namedview841"
     showgrid="false"
     inkscape:zoom="0.2832"
     inkscape:cx="1017.7097"
     inkscape:cy="165.09748"
     inkscape:window-x="-8"
     inkscape:window-y="-8"
     inkscape:window-maximized="1"
     inkscape:current-layer="svg839" />
  <g
     id="g837"
     transform="matrix(0.98446328,0,0,0.94915254,-16.004363,-76.569972)"
     style="clip-rule:evenodd;fill-rule:evenodd">
    <path
       d="m 58.076,103.907 h -0.149 c -0.765,0 -1.382,-0.254 -1.763,-0.701 -0.362,-0.469 -0.554,-1.486 -0.596,-3.145 l -0.169,-6.375 0.042,-0.042 10.072,11.475 h 1.444 C 67,104.864 67,104.758 67,104.502 c 0,-0.341 -0.043,-0.722 -0.104,-1.04 l -0.129,-0.639 a 9.798,9.798 0 0 1 -0.149,-1.657 L 66.49,94.43 v -0.127 c 0,-2.252 0.256,-2.678 1.827,-2.889 0.022,0 0.064,0 0.107,-0.022 v -0.977 h -5.482 v 0.977 c 1.02,0.042 1.507,0.212 1.87,0.637 0.298,0.382 0.51,1.551 0.552,3.379 l 0.148,4.037 -0.042,0.043 -7.991,-9.073 h -5.227 v 0.977 c 0.702,0.107 1.296,0.403 2.083,1.042 l 0.085,0.085 0.105,8.033 v 0.256 c 0,0.826 -0.02,1.23 -0.127,1.721 -0.211,0.912 -0.893,1.38 -1.954,1.38 h -0.128 v 0.999 h 5.76 z M 85.767,90.414 H 71.805 v 0.977 h 0.213 c 1.295,0 1.679,0.532 1.679,2.317 v 7.904 c 0,1.785 -0.383,2.295 -1.679,2.295 h -0.213 v 0.999 h 14.281 l 0.616,-3.592 h -1.467 l -0.148,0.171 c -0.766,0.913 -1.298,1.36 -2.104,1.806 -0.915,0.531 -1.424,0.616 -3.103,0.616 -1.848,0 -2.421,-0.532 -2.421,-2.23 v -3.891 h 2.019 c 1.126,0 1.594,0.044 1.997,0.214 0.617,0.233 1.106,0.872 1.296,1.7 h 1.402 v -4.697 h -1.402 c -0.147,0.553 -0.233,0.724 -0.53,1.084 -0.467,0.552 -1.126,0.724 -2.784,0.724 H 77.46 v -5.42 h 2.974 c 0.873,0 1.361,0.085 1.87,0.298 0.681,0.276 1.148,0.659 1.914,1.614 l 0.149,0.171 h 1.402 v -3.06 z m 3.274,0 v 0.977 h 0.17 c 1.317,0 1.7,0.532 1.7,2.317 v 7.904 c 0,1.785 -0.383,2.295 -1.7,2.295 h -0.17 v 0.999 H 96.5 c 2.083,0.021 2.825,-0.064 3.866,-0.34 3.359,-0.873 5.525,-3.634 5.525,-7.099 0,-2.506 -1.168,-4.738 -3.123,-5.97 a 6.4,6.4 0 0 0 -1.742,-0.744 c -0.912,-0.255 -1.658,-0.34 -3.188,-0.34 h -8.797 z m 5.631,0.977 h 0.552 l 0.701,0.022 c 2.315,0.02 3.231,0.296 4.208,1.338 a 5.499,5.499 0 0 1 1.295,2.167 c 0.299,0.956 0.447,1.977 0.447,3.061 0,2.74 -0.998,4.802 -2.635,5.503 -0.531,0.233 -1.486,0.403 -2.252,0.403 -1.721,0 -2.315,-0.659 -2.315,-2.507 v -9.987 z m 13.176,-0.977 v 0.977 h 0.191 c 1.295,0 1.678,0.532 1.678,2.317 v 7.904 c 0,1.806 -0.361,2.295 -1.742,2.295 h -0.084 v 0.999 h 8.627 c 2.314,0.021 3.295,-0.171 4.42,-0.765 1.232,-0.659 2.039,-1.912 2.039,-3.209 0,-1.913 -1.572,-3.209 -4.418,-3.634 v -0.043 c 1.146,-0.233 1.527,-0.36 2.273,-0.765 1.084,-0.595 1.699,-1.594 1.699,-2.676 0,-2.148 -1.977,-3.401 -5.396,-3.401 h -9.287 z m 5.631,6.482 v -5.504 h 1.848 c 1.064,0 1.447,0.107 2.041,0.532 0.744,0.552 1.146,1.402 1.146,2.422 0,0.828 -0.275,1.425 -0.828,1.912 -0.574,0.49 -1.041,0.639 -2.104,0.639 h -2.103 z m 0,1.019 h 2.062 c 2.018,0 3.398,1.275 3.398,3.144 0,1.807 -1.232,2.871 -3.334,2.871 -1.447,0 -2.127,-0.745 -2.127,-2.359 v -3.656 z m 20.162,1.529 0.957,2.402 c 0.02,0.064 0.062,0.19 0.104,0.383 0.129,0.424 0.152,0.487 0.152,0.657 0,0.596 -0.619,0.999 -1.531,1.021 v 0.999 h 7.203 v -0.999 c -0.914,0 -1.424,-0.51 -2.039,-2.061 l -4.525,-11.603 h -3.953 l 0.553,1.212 -3.912,9.945 c -0.742,1.91 -1.082,2.252 -2.465,2.506 v 0.999 h 4.994 v -0.999 c -0.977,-0.127 -1.422,-0.51 -1.422,-1.274 0,-0.298 0.127,-0.873 0.297,-1.382 l 0.637,-1.807 h 4.95 z m -0.469,-1.253 h -3.994 l 1.893,-5.333 z m 14.662,5.716 h -0.15 c -0.766,0 -1.381,-0.254 -1.764,-0.701 -0.361,-0.469 -0.553,-1.486 -0.596,-3.145 l -0.17,-6.375 0.041,-0.042 10.074,11.475 h 1.445 c 0.043,-0.254 0.043,-0.36 0.043,-0.616 a 5.53,5.53 0 0 0 -0.107,-1.04 l -0.129,-0.639 a 10.134,10.134 0 0 1 -0.146,-1.657 l -0.129,-6.736 v -0.127 c 0,-2.252 0.256,-2.678 1.826,-2.889 0.023,0 0.064,0 0.107,-0.022 v -0.977 h -5.482 v 0.977 c 1.02,0.042 1.51,0.212 1.869,0.637 0.299,0.382 0.512,1.551 0.553,3.379 l 0.15,4.037 -0.041,0.043 -7.992,-9.073 h -5.229 v 0.977 c 0.701,0.107 1.299,0.403 2.084,1.042 l 0.086,0.085 0.105,8.033 v 0.256 c 0,0.826 -0.021,1.23 -0.127,1.721 -0.213,0.912 -0.893,1.38 -1.955,1.38 h -0.129 v 0.999 h 5.762 v -1.002 z m 21.801,-12.516 h 0.15 c 0.658,0 1.082,0.319 1.082,0.808 0,0.488 -0.764,1.444 -1.828,2.315 l -3.164,2.573 v -3.379 c 0,-1.785 0.383,-2.317 1.699,-2.317 h 0.17 v -0.977 h -7.502 v 0.977 h 0.236 c 1.316,0 1.699,0.532 1.699,2.317 v 7.904 c 0,1.785 -0.383,2.295 -1.699,2.295 h -0.236 v 0.999 h 7.459 v -0.999 h -0.127 c -1.316,0 -1.699,-0.51 -1.699,-2.295 v -3.463 l 4.396,5.162 c 0.342,0.404 0.779,0.764 1.389,1.08 0.578,0.302 1.594,0.515 1.594,0.515 h 3.244 v -0.999 c -0.785,-0.127 -1.486,-0.639 -2.529,-1.807 l -5.248,-5.992 3.549,-2.974 c 1.596,-1.34 1.828,-1.467 3.232,-1.743 v -0.977 h -5.867 z M 18.054,96.377 c 0,-3.716 1.446,-7.209 4.075,-9.836 a 13.816,13.816 0 0 1 9.836,-4.073 c 3.716,0 7.209,1.446 9.836,4.073 2.627,2.627 4.074,6.12 4.074,9.836 0,3.716 -1.446,7.211 -4.074,9.836 a 13.816,13.816 0 0 1 -9.836,4.075 13.816,13.816 0 0 1 -9.836,-4.075 13.808,13.808 0 0 1 -4.075,-9.836 z m -1.797,0 c 0,4.195 1.634,8.141 4.601,11.107 a 15.606,15.606 0 0 0 11.107,4.6 c 4.195,0 8.139,-1.634 11.105,-4.6 a 15.609,15.609 0 0 0 4.6,-11.107 c 0,-4.195 -1.634,-8.139 -4.6,-11.105 a 15.604,15.604 0 0 0 -11.105,-4.6 15.601,15.601 0 0 0 -11.107,4.6 15.6,15.6 0 0 0 -4.601,11.105 z"
       id="path833"
       inkscape:connector-curvature="0"
       style="fill:#a8a8a8;fill-opacity:1" />
    <path
       d="m 32.194,89.882 4.657,-3.207 4.993,3.332 v 12.783 l -4.704,3.166 -4.777,-3.052 -4.973,3.186 -5.306,-3.174 0.042,-12.866 4.887,-3.384 z m -5.011,-1.883 -3.914,2.648 17.406,11.35 0.035,-11.282 -3.669,-2.378 v 6.184 z m 3.971,14.215 -3.765,-2.475 v 4.93 z"
       id="path835"
       inkscape:connector-curvature="0"
       style="fill:#a8a8a8;fill-opacity:1" />
  </g>
</svg>
