<?xml version="1.0" encoding="UTF-8" standalone="no"?>
<svg
   xmlns:dc="http://purl.org/dc/elements/1.1/"
   xmlns:cc="http://creativecommons.org/ns#"
   xmlns:rdf="http://www.w3.org/1999/02/22-rdf-syntax-ns#"
   xmlns:svg="http://www.w3.org/2000/svg"
   xmlns="http://www.w3.org/2000/svg"
   xmlns:sodipodi="http://sodipodi.sourceforge.net/DTD/sodipodi-0.dtd"
   xmlns:inkscape="http://www.inkscape.org/namespaces/inkscape"
   version="1.1"
   id="Capa_1"
   x="0px"
   y="0px"
   viewBox="0 0 467.15332 89.717203"
   xml:space="preserve"
   width="504.6683"
   height="96.921989"
   class=""
   sodipodi:docname="pick.svg"
   inkscape:version="0.92.4 (5da689c313, 2019-01-14)"><metadata
   id="metadata7222"><rdf:RDF><cc:Work
       rdf:about=""><dc:format>image/svg+xml</dc:format><dc:type
         rdf:resource="http://purl.org/dc/dcmitype/StillImage" /><dc:title></dc:title></cc:Work></rdf:RDF></metadata><defs
   id="defs7220" /><sodipodi:namedview
   pagecolor="#ffffff"
   bordercolor="#666666"
   borderopacity="1"
   objecttolerance="10"
   gridtolerance="10"
   guidetolerance="10"
   inkscape:pageopacity="0"
   inkscape:pageshadow="2"
   inkscape:window-width="1600"
   inkscape:window-height="877"
   id="namedview7218"
   showgrid="false"
   inkscape:zoom="0.4609375"
   inkscape:cx="247.39726"
   inkscape:cy="190.74197"
   inkscape:window-x="-8"
   inkscape:window-y="-8"
   inkscape:window-maximized="1"
   inkscape:current-layer="g7215" /><g
   transform="matrix(1.13798,0,0,1.13798,-19.684822,-348.6287)"
   id="g7215"><circle
     cx="236.97"
     cy="236.97"
     r="236.97"
     data-original="#F3F2F2"
     class="active-path"
     data-old_color="#F3F2F2"
     id="circle7181"
     style="fill:none" /><path
     id="path7185"
     style="fill:#a8a8a8;fill-opacity:1"
     d="m 246.63104,339.96949 v 26.114 c 0,1.411 -1.149,2.578 -2.608,2.578 h -7.446 c -1.426,0 -2.593,-1.171 -2.593,-2.578 v -25.736 c 0,-3.267 -0.46,-5.298 -6.81,-5.298 -3.3,0 -5.021,0.408 -7.36,0.782 v 30.349 c 0,1.396 -1.141,2.578 -2.567,2.578 h -7.517 c -1.448,0 -2.574,-1.182 -2.574,-2.578 v -36.737 c 0,-0.812 0.064,-2.148 1.811,-2.698 3.046,-0.95 10.189,-2.432 17.38,-2.432 15.135,0 20.284,5.707 20.284,15.656 m 181.176,25.291 c 0,13.687 -5.643,19.936 -20.011,19.936 -5.343,0 -10.23,-0.696 -13.717,-1.811 -1.635,-0.475 -2.294,-1.411 -2.294,-2.859 v -4.311 c 0,-1.456 0.939,-2.47 2.537,-2.155 3.772,0.767 8.329,1.227 12.696,1.227 7.035,0 8.108,-1.695 8.108,-7.27 -2.586,0.46 -5.332,0.797 -8.075,0.797 -12.872,0 -18.039,-4.142 -18.039,-15.704 v -25.717 c 0,-1.426 1.164,-2.574 2.574,-2.574 h 7.483 c 1.437,0 2.593,1.149 2.593,2.574 v 25.93 c 0,4.131 2.219,5.721 7.345,5.721 2.118,0 4.415,-0.475 6.129,-0.905 v -30.746 c 0,-1.426 1.156,-2.574 2.578,-2.574 h 7.48 c 1.437,0 2.615,1.149 2.615,2.574 v 37.867 z m -110.842,-12.655 c -2.406,0.965 -5.407,1.089 -9.07,1.089 h -17.107 v 12.483 c 0,1.403 -1.13,2.578 -2.552,2.578 h -7.491 c -1.437,0 -2.608,-1.175 -2.608,-2.578 v -46.648 c 0,-1.433 1.171,-2.593 2.608,-2.593 h 27.15 c 3.663,0 6.664,0.123 9.07,1.074 5.205,2.092 8.142,7.719 8.142,17.306 0,9.592 -2.941,15.205 -8.142,17.289 m 13.066,-46.248 h -59.801 c -3.626,0 -6.571,2.982 -6.571,6.578 v 59.793 c 0,3.626 2.945,6.6 6.571,6.6 h 59.801 c 3.626,0 6.604,-2.975 6.604,-6.6 v -59.793 c 0,-3.596 -2.978,-6.578 -6.604,-6.578 m -23.64,21.07 h -15.603 v 15.764 h 15.603 c 3.981,0 5.934,-1.643 5.934,-7.876 0,-6.242 -1.953,-7.888 -5.934,-7.888 m 62.045,32.048 c -0.984,0.168 -4.67,0.359 -6.039,0.359 -4.864,0 -6.769,-1.527 -6.769,-5.452 0,-3.42 2.354,-4.685 5.216,-5.107 1.994,-0.314 5.085,-0.254 7.592,-0.094 z m -5.638,-35.229 c -5.134,0 -9.863,0.73 -12.883,1.549 -1.661,0.423 -2.327,1.317 -2.327,2.638 v 4.325 c 0,1.833 1.096,2.623 2.9,2.354 3.195,-0.445 7.091,-0.943 11.281,-0.943 5.74,0 6.668,1.594 6.668,4.707 v 1.777 c -4.202,-0.191 -9.291,-0.191 -13.257,0.621 -7.083,1.448 -11.498,5.568 -11.498,14.054 0,9.777 5.646,13.957 18.439,13.908 6.926,0 12.55,-0.46 16.389,-1.31 1.302,-0.277 2.238,-1.557 2.238,-3.259 v -25.096 c -0.005,-8.264 -1.487,-15.325 -17.95,-15.325 m -296.823001,11.064 c 0,6.234 -1.957,7.876 -5.942,7.876 h -15.614 v -15.764 h 15.614 c 3.981,0.005 5.942,1.651 5.942,7.888 m 12.748,0 c 0,-9.59 -2.904,-15.214 -8.131,-17.306 -2.413,-0.95 -5.392,-1.074 -9.055,-1.074 h -27.165 c -1.441,0 -2.593,1.164 -2.593,2.593 v 46.649 c 0,1.403 1.156,2.578 2.593,2.578 h 7.513 c 1.403,0 2.533,-1.175 2.533,-2.578 v -12.483 h 17.119 c 3.663,0 6.642,-0.123 9.055,-1.089 5.228,-2.079 8.131,-7.692 8.131,-17.29 m 11.566,-22.375 v 59.793 c 0,3.626 -2.99,6.6 -6.627,6.6 h -59.79 c -3.626,0 -6.574,-2.975 -6.574,-6.6 v -59.793 c 0,-3.596 2.949,-6.578 6.574,-6.578 h 59.79 c 3.637,0 6.627,2.982 6.627,6.578 m 20.258001,14.529 c 0,-1.418 -1.141,-2.578 -2.578,-2.578 h -7.502 c -1.437001,0 -2.601001,1.164 -2.601001,2.578 v 38.72 c 0,1.396 1.167,2.578 2.601001,2.578 h 7.502 c 1.441,0 2.578,-1.182 2.578,-2.578 z m 25.556,7.386 c 3.581,-0.161 7.611,0.284 9.736,0.505 1.949,0.161 2.649,-0.546 2.649,-2.2 v -4.816 c 0,-1.717 -0.726,-2.544 -2.387,-2.967 -1.126,-0.299 -4.464,-1.029 -9.998,-1.01 -17.175,0.079 -18.219,15.809 -18.473,18.761 -0.217,2.698 -0.195,4.905 0,7.469 0.206,2.945 1.298,18.694 18.473,18.761 5.534,0.022 9.074,-0.767 9.998,-1.003 1.658,-0.393 2.387,-1.265 2.387,-2.99 v -4.793 c 0,-1.833 -0.883,-2.425 -2.84,-2.2 -2.619,0.284 -6.825,0.591 -9.545,0.498 -3.981,-0.131 -5.964,-2.406 -6.387,-8.572 -0.138,-2.264 -0.138,-4.625 0,-6.877 0.423,-6.152 2.402,-8.405 6.387,-8.566 m 55.247,33.912 h -9.53 c -1.616,0 -2.69,-1.227 -3.192,-1.916 l -10.836,-14.746 v 14.024 c 0,1.411 -1.212,2.638 -2.664,2.638 h -7.304 c -1.463,0 -2.675,-1.227 -2.675,-2.638 v -53.227 c 0,-1.411 1.171,-2.578 2.675,-2.578 h 7.304 c 1.471,0 2.664,1.171 2.664,2.578 v 28.071 l 11.992,-14.806 c 0.797,-0.95 1.553,-1.28 2.66,-1.28 h 8.527 c 1.931,0 2.885,1.265 1.527,3.158 l -15.12,17.781 15.457,20.22 c 1.288,1.711 0.143,2.721 -1.485,2.721"
     inkscape:connector-curvature="0" /></g> </svg>