<?xml version="1.0" encoding="UTF-8" standalone="no"?>
<svg
   xmlns:dc="http://purl.org/dc/elements/1.1/"
   xmlns:cc="http://creativecommons.org/ns#"
   xmlns:rdf="http://www.w3.org/1999/02/22-rdf-syntax-ns#"
   xmlns:svg="http://www.w3.org/2000/svg"
   xmlns="http://www.w3.org/2000/svg"
   xmlns:sodipodi="http://sodipodi.sourceforge.net/DTD/sodipodi-0.dtd"
   xmlns:inkscape="http://www.inkscape.org/namespaces/inkscape"
   height="232.06154"
   width="923.0769"
   xml:space="preserve"
   id="Layer_1"
   version="1.1"
   viewBox="-30 -12.57 200 21.877602"
   sodipodi:docname="vodacom.svg"
   inkscape:version="0.92.4 (5da689c313, 2019-01-14)"><metadata
     id="metadata5159"><rdf:RDF><cc:Work
         rdf:about=""><dc:format>image/svg+xml</dc:format><dc:type
           rdf:resource="http://purl.org/dc/dcmitype/StillImage" /></cc:Work></rdf:RDF></metadata><defs
     id="defs5157" /><sodipodi:namedview
     pagecolor="#ffffff"
     bordercolor="#666666"
     borderopacity="1"
     objecttolerance="10"
     gridtolerance="10"
     guidetolerance="10"
     inkscape:pageopacity="0"
     inkscape:pageshadow="2"
     inkscape:window-width="1600"
     inkscape:window-height="877"
     id="namedview5155"
     showgrid="false"
     inkscape:zoom="0.47333333"
     inkscape:cx="524.70458"
     inkscape:cy="-27.354512"
     inkscape:window-x="-8"
     inkscape:window-y="-8"
     inkscape:window-maximized="1"
     inkscape:current-layer="Layer_1" /><style
     id="style14252"
     type="text/css">.st0{fill:#ee3124}</style><g
     id="g14278"
     transform="translate(-30,-26.7712)"><g
       id="g14258"><path
         id="path14254"
         d="M 50.27,25.14 C 50.27,39.02 39.02,50.28 25.13,50.28 11.25,50.27 0,39.02 0,25.14 0,11.26 11.25,0 25.14,0 39.02,0 50.27,11.25 50.27,25.14"
         class="st0"
         style="fill:#a8a8a8;fill-opacity:1"
         inkscape:connector-curvature="0" /><path
         id="path14256"
         d="M 25.34,39.15 C 18.43,39.17 11.25,33.28 11.22,23.81 11.2,17.55 14.58,11.53 18.89,7.95 23.1,4.46 28.87,2.23 34.1,2.21 c 0.67,0 1.38,0.05 1.81,0.2 -4.57,0.95 -8.21,5.21 -8.2,10.03 0,0.16 0.02,0.33 0.03,0.41 7.65,1.86 11.13,6.48 11.15,12.87 0.02,6.4 -5.03,13.4 -13.55,13.43"
         style="fill:#2e2e2e;fill-opacity:0.95813952"
         inkscape:connector-curvature="0" /></g><path
       id="polygon14260"
       class="st0"
       d="m 63.84,17.21 4.8,12.17 4.64,-12.17 h 4.79 L 70.61,35.55 H 66.5 L 58.82,17.21 Z"
       style="fill:#a8a8a8;fill-opacity:1"
       inkscape:connector-curvature="0" /><g
       id="g14270"><path
         id="path14262"
         d="m 91.45,26.28 c 0,-0.76 -0.09,-1.49 -0.27,-2.18 -0.18,-0.69 -0.44,-1.28 -0.8,-1.78 -0.36,-0.5 -0.79,-0.89 -1.29,-1.18 -0.51,-0.29 -1.1,-0.44 -1.79,-0.44 -0.68,0 -1.28,0.15 -1.79,0.44 -0.51,0.29 -0.94,0.69 -1.29,1.18 -0.36,0.5 -0.62,1.09 -0.8,1.78 -0.18,0.69 -0.27,1.41 -0.27,2.18 0,0.79 0.09,1.52 0.27,2.2 0.18,0.67 0.44,1.27 0.78,1.77 0.34,0.51 0.77,0.91 1.29,1.2 0.52,0.29 1.12,0.44 1.81,0.44 0.69,0 1.28,-0.15 1.79,-0.44 0.51,-0.29 0.94,-0.69 1.29,-1.2 0.36,-0.51 0.62,-1.1 0.8,-1.77 0.18,-0.68 0.27,-1.41 0.27,-2.2 m 4.64,0.02 c 0,1.19 -0.18,2.37 -0.55,3.52 -0.37,1.16 -0.91,2.19 -1.64,3.1 -0.72,0.91 -1.64,1.65 -2.74,2.21 -1.1,0.56 -2.39,0.84 -3.86,0.84 -1.47,0 -2.76,-0.28 -3.86,-0.84 -1.1,-0.56 -2.02,-1.29 -2.74,-2.21 -0.72,-0.91 -1.27,-1.95 -1.64,-3.1 -0.37,-1.15 -0.55,-2.33 -0.55,-3.52 0,-1.19 0.18,-2.36 0.55,-3.5 0.37,-1.14 0.91,-2.16 1.64,-3.06 0.72,-0.9 1.64,-1.62 2.74,-2.17 1.1,-0.54 2.39,-0.82 3.86,-0.82 1.47,0 2.75,0.27 3.84,0.82 1.09,0.55 2,1.27 2.74,2.17 0.74,0.9 1.29,1.92 1.66,3.06 0.37,1.14 0.55,2.31 0.55,3.5"
         class="st0"
         style="fill:#a8a8a8;fill-opacity:1"
         inkscape:connector-curvature="0" /><path
         id="path14264"
         d="m 110.26,21.24 c -0.91,-0.36 -1.75,-0.53 -2.54,-0.53 -0.81,0 -1.5,0.15 -2.08,0.46 -0.58,0.31 -1.06,0.72 -1.44,1.24 -0.38,0.52 -0.66,1.11 -0.85,1.76 -0.19,0.65 -0.28,1.32 -0.28,2 0,0.76 0.08,1.5 0.25,2.2 0.16,0.7 0.42,1.31 0.76,1.83 0.34,0.52 0.77,0.94 1.29,1.26 0.52,0.32 1.13,0.48 1.84,0.48 0.58,0 1.17,-0.16 1.78,-0.48 0.6,-0.32 1.03,-0.69 1.29,-1.13 v -9.09 z m 0.38,14.31 -0.19,-1.41 c -0.43,0.48 -1,0.91 -1.71,1.28 -0.71,0.37 -1.54,0.55 -2.5,0.55 -1.26,0 -2.38,-0.27 -3.34,-0.8 -0.96,-0.53 -1.77,-1.24 -2.43,-2.13 -0.66,-0.89 -1.16,-1.92 -1.5,-3.08 -0.34,-1.17 -0.51,-2.38 -0.51,-3.65 0,-1.19 0.18,-2.36 0.53,-3.5 0.35,-1.14 0.89,-2.16 1.61,-3.06 0.72,-0.9 1.62,-1.62 2.71,-2.17 1.09,-0.54 2.36,-0.82 3.83,-0.82 0.96,0 2,0.18 3.11,0.53 v -7.11 h 4.72 v 25.38 h -4.33 z"
         class="st0"
         style="fill:#a8a8a8;fill-opacity:1"
         inkscape:connector-curvature="0" /><path
         id="path14266"
         d="m 128.26,26.95 c -0.51,0.03 -1.03,0.07 -1.57,0.13 -0.54,0.06 -1.05,0.15 -1.53,0.25 -1.02,0.2 -1.73,0.55 -2.13,1.05 -0.4,0.49 -0.59,1.03 -0.59,1.62 0,0.61 0.22,1.1 0.67,1.47 0.45,0.37 1.08,0.55 1.9,0.55 0.61,0 1.21,-0.13 1.78,-0.38 0.57,-0.25 1.07,-0.57 1.48,-0.95 v -3.74 z m 0.38,8.58 -0.19,-1.37 c -0.51,0.56 -1.16,1.01 -1.95,1.32 -0.79,0.32 -1.65,0.48 -2.6,0.48 -0.79,0 -1.55,-0.13 -2.27,-0.4 -0.73,-0.27 -1.37,-0.65 -1.93,-1.14 -0.56,-0.49 -1.01,-1.1 -1.36,-1.83 -0.34,-0.72 -0.51,-1.54 -0.51,-2.45 0,-0.91 0.18,-1.72 0.53,-2.42 0.36,-0.7 0.84,-1.29 1.45,-1.77 0.61,-0.48 1.31,-0.88 2.1,-1.18 0.79,-0.3 1.62,-0.53 2.48,-0.68 0.61,-0.13 1.28,-0.22 2.01,-0.28 0.72,-0.06 1.33,-0.12 1.81,-0.17 v -0.27 c 0,-1.02 -0.26,-1.74 -0.78,-2.17 -0.52,-0.43 -1.24,-0.65 -2.16,-0.65 -0.54,0 -1.05,0.06 -1.53,0.19 -0.48,0.13 -0.92,0.28 -1.3,0.48 -0.38,0.19 -0.72,0.38 -1.01,0.57 -0.29,0.19 -0.53,0.36 -0.71,0.51 L 119.17,19 c 0.2,-0.18 0.51,-0.39 0.93,-0.65 0.42,-0.25 0.93,-0.5 1.52,-0.74 0.6,-0.24 1.27,-0.44 2.02,-0.61 0.75,-0.16 1.55,-0.25 2.42,-0.25 1.01,0 1.94,0.13 2.78,0.4 0.84,0.27 1.56,0.68 2.17,1.26 0.61,0.57 1.08,1.29 1.43,2.17 0.34,0.87 0.51,1.93 0.51,3.17 v 11.79 h -4.31 z"
         class="st0"
         style="fill:#a8a8a8;fill-opacity:1"
         inkscape:connector-curvature="0" /><path
         id="path14268"
         d="m 151.17,33.89 c -0.18,0.13 -0.45,0.3 -0.83,0.53 -0.38,0.23 -0.85,0.45 -1.42,0.66 -0.57,0.21 -1.23,0.4 -1.98,0.55 -0.76,0.15 -1.61,0.23 -2.57,0.23 -1.11,0 -2.17,-0.19 -3.19,-0.57 -1.02,-0.38 -1.93,-0.96 -2.71,-1.74 -0.79,-0.78 -1.42,-1.76 -1.88,-2.94 -0.47,-1.18 -0.7,-2.58 -0.7,-4.19 0,-1.61 0.23,-3.02 0.68,-4.23 0.46,-1.21 1.07,-2.22 1.85,-3.02 0.77,-0.81 1.67,-1.4 2.68,-1.79 1.01,-0.39 2.07,-0.59 3.18,-0.59 1.06,0 1.98,0.14 2.78,0.42 0.79,0.28 1.48,0.62 2.06,1.04 0.58,0.42 1.05,0.88 1.42,1.38 0.36,0.5 0.66,0.98 0.89,1.43 l -3.47,2.34 c -0.38,-0.65 -0.85,-1.26 -1.42,-1.83 -0.57,-0.57 -1.3,-0.85 -2.21,-0.85 -1.01,0 -1.88,0.45 -2.63,1.34 -0.74,0.89 -1.11,2.28 -1.11,4.17 0,1.81 0.38,3.2 1.13,4.15 0.76,0.96 1.85,1.44 3.28,1.44 0.68,0 1.29,-0.07 1.83,-0.21 0.54,-0.14 1.01,-0.3 1.42,-0.49 0.4,-0.19 0.74,-0.38 1,-0.58 0.26,-0.2 0.46,-0.37 0.58,-0.49 z"
         class="st0"
         style="fill:#a8a8a8;fill-opacity:1"
         inkscape:connector-curvature="0" /></g><g
       id="g14276"><path
         id="path14272"
         d="m 165.62,26.24 c 0,-0.76 -0.09,-1.48 -0.26,-2.16 -0.18,-0.68 -0.44,-1.27 -0.79,-1.76 -0.35,-0.49 -0.78,-0.88 -1.28,-1.17 -0.5,-0.29 -1.1,-0.44 -1.77,-0.44 -0.68,0 -1.27,0.15 -1.78,0.44 -0.5,0.29 -0.93,0.68 -1.28,1.17 -0.35,0.49 -0.62,1.08 -0.79,1.76 -0.18,0.68 -0.26,1.4 -0.26,2.16 0,0.78 0.09,1.51 0.26,2.18 0.18,0.67 0.43,1.26 0.77,1.76 0.34,0.5 0.77,0.9 1.28,1.19 0.52,0.29 1.11,0.44 1.79,0.44 0.68,0 1.27,-0.14 1.77,-0.44 0.5,-0.29 0.93,-0.69 1.28,-1.19 0.35,-0.51 0.62,-1.09 0.79,-1.76 0.18,-0.66 0.27,-1.39 0.27,-2.18 m 4.61,0.02 c 0,1.18 -0.18,2.35 -0.55,3.49 -0.37,1.15 -0.91,2.17 -1.62,3.08 -0.72,0.91 -1.62,1.64 -2.72,2.19 -1.1,0.55 -2.37,0.83 -3.83,0.83 -1.46,0 -2.74,-0.28 -3.83,-0.83 -1.1,-0.55 -2,-1.28 -2.72,-2.19 -0.72,-0.91 -1.26,-1.93 -1.62,-3.08 -0.36,-1.14 -0.55,-2.31 -0.55,-3.49 0,-1.18 0.18,-2.34 0.55,-3.47 0.36,-1.13 0.91,-2.15 1.62,-3.04 0.72,-0.89 1.62,-1.61 2.72,-2.15 1.1,-0.54 2.37,-0.81 3.83,-0.81 1.46,0 2.73,0.27 3.81,0.81 1.08,0.54 1.99,1.26 2.72,2.15 0.73,0.89 1.28,1.91 1.64,3.04 0.36,1.13 0.55,2.29 0.55,3.47"
         class="st0"
         style="fill:#a8a8a8;fill-opacity:1"
         inkscape:connector-curvature="0" /><path
         id="path14274"
         d="M 195.32,35.44 V 24.75 c 0,-1.21 -0.23,-2.18 -0.68,-2.93 -0.45,-0.74 -1.3,-1.11 -2.53,-1.11 -0.35,0 -0.71,0.06 -1.08,0.17 -0.36,0.11 -0.71,0.24 -1.04,0.4 -0.33,0.15 -0.62,0.31 -0.87,0.47 -0.25,0.16 -0.45,0.31 -0.6,0.43 0.05,0.3 0.1,0.64 0.15,1.02 0.05,0.38 0.08,0.79 0.08,1.25 v 10.99 h -4.68 V 24.75 c 0,-0.55 -0.04,-1.08 -0.13,-1.57 -0.09,-0.49 -0.25,-0.92 -0.47,-1.28 -0.23,-0.36 -0.52,-0.65 -0.89,-0.87 -0.36,-0.21 -0.82,-0.32 -1.38,-0.32 -0.71,0 -1.37,0.19 -2,0.57 -0.63,0.38 -1.16,0.78 -1.58,1.21 v 12.95 h -4.68 v -18.2 h 4.3 l 0.19,1.36 c 0.56,-0.5 1.24,-0.93 2.06,-1.28 0.82,-0.35 1.64,-0.53 2.48,-0.53 0.86,0 1.71,0.13 2.55,0.4 0.84,0.26 1.63,0.72 2.36,1.38 0.83,-0.5 1.75,-0.93 2.74,-1.27 1,-0.34 2.06,-0.51 3.2,-0.51 1.36,0 2.5,0.18 3.42,0.53 0.92,0.35 1.66,0.86 2.21,1.51 0.56,0.66 0.95,1.46 1.19,2.42 0.24,0.96 0.36,2.05 0.36,3.29 v 10.91 h -4.68 z"
         class="st0"
         style="fill:#a8a8a8;fill-opacity:1"
         inkscape:connector-curvature="0" /></g></g></svg>